<?xml version="1.0" encoding="utf-8"?>
<!-- Generator: Adobe Illustrator 21.0.2, SVG Export Plug-In . SVG Version: 6.00 Build 0)  -->
<svg version="1.1" id="Layer_1" xmlns="http://www.w3.org/2000/svg" xmlns:xlink="http://www.w3.org/1999/xlink" x="0px" y="0px"
	 viewBox="0 0 103 81.1" style="enable-background:new 0 0 103 81.1;" xml:space="preserve">
<style type="text/css">
	.st0{fill:#FF7059;}
</style>
<path class="st0" d="M37.2,32.2c-1.4,0-2.8-0.6-3.8-1.6s-1.5-2.4-1.4-3.9c0.1-2,0.2-4.2,0.3-5.7l0.1-0.8c0.1-0.6,0.2-1.9,1.2-2.9
	c0.9-0.9,14.1-10.9,17.9-10.9c3.8,0,17,10,17.9,10.9c1.1,1,1.2,2.3,1.3,2.9l0.1,0.8c0.1,1.5,0.2,3.8,0.3,5.7
	c0.1,1.4-0.4,2.8-1.4,3.9c-1,1-2.4,1.6-3.8,1.6H37.2z"/>
<path class="st0" d="M31.5,42.5v-5c0-2.9,2.4-5.2,5.3-5.2h29.4c2.9,0,5.2,2.3,5.3,5.2v5H31.5z"/>
<path class="st0" d="M31.7,52.7l-0.2-10.2h39.9l-0.1,10.2H31.7z"/>
<path class="st0" d="M31.9,62.9l-0.2-10.2h39.6l-0.2,10.2H31.9z"/>
<path class="st0" d="M50.6,78.5C48,77,34.8,69.4,33.2,67.9c-1.2-1.1-1.3-2.6-1.3-3.1V63l1.8-0.1h37.4L71,64.7c0,0.6-0.1,2.1-1.3,3.2
	C68.2,69.4,55,77,52.4,78.5L51.5,79L50.6,78.5z"/>
<path d="M33.3,40.7v-3.3c0-1.9,1.6-3.4,3.5-3.4h29.4c1.9,0,3.5,1.6,3.5,3.5v3.2C69.7,40.7,33.3,40.7,33.3,40.7z M34,21.2l0.1-0.7
	c0-0.4,0-1.3,0.7-2c1.5-1.4,13.9-10.4,16.7-10.4s15.2,9,16.7,10.4c0.7,0.7,0.7,1.6,0.8,2l0.1,0.7c0.1,1.4,0.2,3.7,0.3,5.6
	c0.1,2-1.5,3.7-3.5,3.7H37.2c-2,0-3.6-1.7-3.5-3.7C33.8,24.9,33.9,22.7,34,21.2z M30,58.1l0.1,3.1v3.6c0.1,1.9,0.7,3.4,1.8,4.4
	c1.6,1.5,11.8,7.4,17.7,10.9l1.7,1l1.7-1c5.9-3.4,16.2-9.4,17.7-10.9c1.2-1.1,1.8-2.6,1.8-4.4l0.1-3.6V58c0,0,0.2-10.2,0.2-11.9
	s0.1-17.9,0.1-20.1s-0.5-6-0.5-6c-0.1-0.7-0.3-2.5-1.8-4c-0.1-0.1-3.6-2.9-7.7-5.7V5.7l3,2C66.8,8.3,68,8,68.6,7.1S69,4.9,68,4.3
	l-6.1-4c-0.6-0.4-1.4-0.4-2-0.1s-1.1,1-1.1,1.8v5.8C56,6,53.2,4.7,51.5,4.7S46.9,6.1,44,7.9V2c0-0.7-0.4-1.4-1.1-1.8
	c-0.6-0.3-1.4-0.3-2,0.1l-6.1,4c-0.9,0.6-1.2,1.8-0.6,2.8C34.8,8,36,8.3,37,7.7l3-2v4.8c-3.9,2.7-7.3,5.4-7.6,5.6
	c-1.5,1.5-1.7,3.3-1.8,4c0,0-0.5,2.9-0.5,5.5S30,47.8,30,47.8L30,58.1z M68.6,66.6C67.1,68,51.5,77,51.5,77s-15.6-9-17.1-10.4
	c-0.7-0.7-0.7-1.6-0.7-2h35.6C69.3,65,69.3,66,68.6,66.6z M69.4,61.2H33.6l-0.1-6.7h36C69.5,54.5,69.4,61.2,69.4,61.2z M69.6,50.9
	H33.4l-0.1-6.7h36.3V50.9z"/>
<g>
	<path class="st0" d="M93.8,36.1c7.3,4.6,8.7,13.9,4.6,20.3c-1.4,2.3-3.5,4.1-6.2,5.4c-0.1,0.1-0.2,0-0.2,0.1
		c-9.1,4.2-19.5-2.2-19.7-12.3c-0.2-9.4-0.3-19.9,0.2-27C72.6,22.7,93.8,36.1,93.8,36.1z"/>
	<path d="M73.2,25.7c5.6,3,13.6,8.1,20.7,12.8c7.6,4.9,7.5,16-0.1,20.9c-0.1,0-0.1,0.1-0.2,0.1c-2.3,1.4-4.7,2.1-7.1,2.1
		c-6.9,0-13.3-5.5-13.3-13.3C73.2,48.3,73.2,25.7,73.2,25.7z M70.1,20c0,0-0.1,29.2-0.1,29.2c0,10,7.6,16,16.5,16h0.1
		c3.2,0,6.3-0.9,9-2.6l0.2-0.1c4.6-2.9,7.4-7.9,7.4-13.3s-2.6-10.5-7.1-13.5c-9.2-6.1-16.4-10.5-21.2-13.1L70.1,20z"/>
</g>
<g>
	<path class="st0" d="M31,48.2c0,8.6-7.1,14.7-14.7,14.7c-2.7,0-5.3-0.8-7.9-2.3c-0.1,0-0.1-0.1-0.2-0.1C-0.3,55-0.4,42.7,8,37.3
		c7.9-5.2,16.7-10.9,22.9-14.2C31,23.1,31,48.2,31,48.2z"/>
	<path d="M29.8,48.3c0,7.8-6.4,13.3-13.3,13.3c-2.4,0-4.8-0.7-7.1-2.1c-0.1,0-0.1-0.1-0.2-0.1c-7.6-4.9-7.7-16-0.1-20.9
		c7.1-4.7,15.1-9.8,20.7-12.8C29.8,25.7,29.8,48.3,29.8,48.3z M28.1,22.5c-4.8,2.6-12,7-21.2,13.1c-4.5,3-7.1,8.1-7.1,13.5
		s2.8,10.4,7.4,13.3l0.2,0.1c2.7,1.7,5.8,2.6,9,2.6h0.1c8.8,0,16.5-6,16.5-16c0,0-0.1-29.2-0.1-29.2L28.1,22.5z"/>
</g>
</svg>
