<svg xmlns="http://www.w3.org/2000/svg" xmlns:xlink="http://www.w3.org/1999/xlink" width="161" height="147" viewBox="0 0 161 147">
    <defs>
        <path id="a" d="M.196.861h79.452V65.4H.196z"/>
    </defs>
    <g fill="none" fill-rule="evenodd">
        <path fill="#FFF" d="M43.206 123.477l3.518-3.251-18.89-18.891-2.81 2.58a3.57 3.57 0 0 1-4.412.337l26.103 26.103-5.86 5.82-30.58-28.706 6.743-6.811 2.636 2.635a3.574 3.574 0 0 1 .52-4.655l2.585-2.376-5.765-5.767L0 107.655l40.995 38.484 15.876-15.767-5.074-5.073-3.725 3.443-4.866-5.265zM50.61 80.405a.861.861 0 0 1 .583-.227h50.233a4.663 4.663 0 0 1 4.658 4.657c0 2.57-2.09 4.66-4.658 4.66h-24.28a3.584 3.584 0 1 0 0 7.169h24.28c2.959 0 5.66-1.1 7.738-2.904l-4.415-4.798 8.034-7.395c-1.423-4.934-5.97-8.558-11.357-8.558H51.193a8.008 8.008 0 0 0-5.432 2.117L22.76 96.261l5.074 5.074 22.777-20.93z"/>
        <path fill="#FFF" d="M19.96 103.702c.198.216.42.394.652.55l-.96-.96c.097.14.19.282.308.41"/>
        <path fill="#FFF" d="M19.653 103.293l.96.959c.597.4 1.29.61 1.987.61.866 0 1.736-.313 2.424-.945l2.81-2.582-5.075-5.073-2.585 2.376a3.573 3.573 0 0 0-.52 4.655M148.113 52.172c-2.808.413-5.579 1.855-7.81 4.065l-27.52 25.33c.3 1.04.47 2.134.47 3.269 0 3.562-1.59 6.754-4.09 8.924l36.047-32.295.107-.103c1.141-1.142 2.54-1.906 3.84-2.097 1.13-.168 2.047.118 2.795.864 1.87 1.87 1.805 4.648-.152 6.607l-39.97 43.946a1.905 1.905 0 0 1-1.407.622h-50.9a8.002 8.002 0 0 0-5.448 2.132l-7.35 6.79 5.073 5.073 7.142-6.598a.856.856 0 0 1 .583-.228h50.9a9.088 9.088 0 0 0 6.71-2.967l39.8-43.766c4.674-4.74 4.72-12.049.09-16.679-2.36-2.36-5.524-3.382-8.91-2.889"/>
        <path fill="#FFF" d="M43.206 123.477l4.865 5.265 3.727-3.443-5.074-5.073zM109.163 93.76c2.5-2.17 4.09-5.362 4.09-8.924 0-1.135-.17-2.229-.47-3.269l-8.035 7.395 4.415 4.798z"/>
        <g transform="translate(45 .139)">
            <mask id="b" fill="#fff">
                <use xlink:href="#a"/>
            </mask>
            <path fill="#FFF" d="M78.713 15.557C75.595 6.767 67.113.86 57.604.86c-7.157 0-13.426 5.018-17.528 11.019C35.973 5.879 29.704.86 22.548.86 12.872.86 4.181 6.95 1.415 15.673-2.24 27.198 3.155 35.227 6.723 40.54l.41.61c10.586 15.834 30.81 23.687 31.665 24.013a3.584 3.584 0 0 0 2.555 0c.856-.326 21.095-8.18 31.682-24.013 3.335-4.99 8.812-16.757 5.678-25.594" mask="url(#b)"/>
        </g>
    </g>
</svg>
