<svg xmlns="http://www.w3.org/2000/svg" xmlns:xlink="http://www.w3.org/1999/xlink" width="354" height="68" viewBox="0 0 354 68">
    <defs>
        <path id="a" d="M0 .082h66.77V57H0z"/>
        <path id="c" d="M.281.775h22.645V23.56H.281z"/>
        <path id="e" d="M0 68h354V1H0z"/>
    </defs>
    <g fill="none" fill-rule="evenodd">
        <path class="lower-logo" fill="#F27121" d="M137.257 38.405v14.81h7.255c.995 0 1.932-.193 2.807-.58a7.331 7.331 0 0 0 2.301-1.587 7.486 7.486 0 0 0 2.123-5.239 7.359 7.359 0 0 0-.567-2.876 7.349 7.349 0 0 0-3.856-3.948 6.874 6.874 0 0 0-2.808-.58h-7.255zm0 29.595H130V31h14.512c1.333 0 2.614.177 3.843.529 1.231.352 2.381.852 3.451 1.496a14.722 14.722 0 0 1 2.934 2.322 14.818 14.818 0 0 1 2.274 3.006c.633 1.1 1.123 2.28 1.468 3.535.344 1.257.518 2.563.518 3.921 0 2.03-.38 3.944-1.138 5.742-.758 1.798-1.795 3.368-3.11 4.709a14.632 14.632 0 0 1-4.614 3.174 13.847 13.847 0 0 1-5.626 1.162h-7.255V68zM190.744 53.216V45.81c0-1.015-.19-1.974-.57-2.876a7.298 7.298 0 0 0-3.868-3.948 6.96 6.96 0 0 0-2.82-.58c-.994 0-1.934.193-2.817.58a7.303 7.303 0 0 0-2.315 1.586 7.47 7.47 0 0 0-1.554 2.362 7.352 7.352 0 0 0-.57 2.876v7.406h14.514zM198 68h-7.256v-7.404H176.23V68H169V45.81c0-2.046.379-3.969 1.138-5.765.758-1.799 1.79-3.368 3.096-4.71a14.483 14.483 0 0 1 4.603-3.173c1.76-.775 3.644-1.162 5.65-1.162 2.006 0 3.889.387 5.651 1.162a14.635 14.635 0 0 1 4.614 3.173c1.315 1.342 2.35 2.911 3.11 4.71.758 1.796 1.138 3.719 1.138 5.765V68zM217.257 38.405v14.81h7.255c.995 0 1.932-.193 2.807-.58a7.331 7.331 0 0 0 2.301-1.587 7.486 7.486 0 0 0 2.123-5.239 7.359 7.359 0 0 0-.567-2.876 7.349 7.349 0 0 0-3.856-3.948 6.874 6.874 0 0 0-2.808-.58h-7.255zm0 29.595H210V31h14.512c1.333 0 2.614.177 3.843.529 1.231.352 2.381.852 3.451 1.496a14.722 14.722 0 0 1 2.934 2.322 14.818 14.818 0 0 1 2.274 3.006c.633 1.1 1.123 2.28 1.468 3.535.344 1.257.518 2.563.518 3.921 0 1.274-.157 2.514-.468 3.717a15.366 15.366 0 0 1-1.34 3.432 14.505 14.505 0 0 1-2.135 2.993 14.54 14.54 0 0 1-2.833 2.374l4.02 9.675h-7.711l-3.16-7.456-8.116.052V68zM274 68h-25V31h25v7.406h-17.7v7.404h11.977v7.406H256.3v7.38H274zM314 68h-7.762l-13.98-24.357V68H285V31h7.762l13.98 24.382V31H314zM342.129 68h-7.232V38.406H324V31h29v7.406h-10.871z"/>
        <g transform="translate(0 11)">
            <mask id="b" fill="#fff">
                <use xlink:href="#a"/>
            </mask>
            <path fill="#2CBFCF" d="M42.769 23.615c-.975 0-1.643-.756-1.643-1.764 0-1.035.696-1.762 1.67-1.762.975 0 1.644.727 1.644 1.762 0 1.008-.642 1.764-1.671 1.764zm-9.27 0c-.975 0-1.67-.756-1.643-1.764 0-1.035.696-1.762 1.67-1.762.976 0 1.615.727 1.643 1.762 0 1.008-.667 1.764-1.67 1.764zm-9.27 0c-.975 0-1.671-.756-1.643-1.764 0-1.035.668-1.762 1.643-1.762 1.002 0 1.641.727 1.641 1.762 0 1.008-.64 1.764-1.641 1.764zm30.686 9.112a4.925 4.925 0 0 1-2.777-.858c-.53-.36-.987-.82-1.345-1.353a4.97 4.97 0 0 1-.853-2.789V5.33l.1-5.247H4.975C2.239.082 0 2.332 0 5.082v32.925c0 2.747 2.242 5 4.976 5H18.79L34.998 57l-.034-13.994h26.83c2.733 0 4.975-2.25 4.975-5v-5.28H54.915z" mask="url(#b)"/>
        </g>
        <path fill="#F27121" d="M92.114 24.815c-.964 0-1.625-.749-1.625-1.75 0-1.026.689-1.748 1.652-1.748.965 0 1.628.722 1.628 1.749 0 1-.635 1.75-1.655 1.75m-9.177 0c-.965 0-1.653-.75-1.626-1.75 0-1.027.69-1.749 1.654-1.749.965 0 1.598.722 1.625 1.749 0 1-.66 1.75-1.653 1.75m-9.177 0c-.965 0-1.654-.75-1.626-1.75 0-1.027.661-1.749 1.626-1.749.992 0 1.626.722 1.626 1.749 0 1-.634 1.75-1.626 1.75M111.075 2H55.026c-2.709 0-4.911 2.234-4.925 4.96L50 12.2h11.637c2.709 0 4.925 2.232 4.925 4.96v27.43h15.443L81.95 57l15.948-12.41h13.176c2.706 0 4.925-2.232 4.925-4.96V6.96c0-2.728-2.216-4.96-4.925-4.96M54 43.815"/>
        <path fill="#CC5827" d="M50.096 12L50 17zM61.974 12H50.1l-.1 5.303v22.642c0 1.042.318 2.013.862 2.82a5.099 5.099 0 0 0 1.359 1.368c.803.547 1.769.867 2.804.867H67V17.054C67 14.274 64.738 12 61.974 12"/>
        <g transform="translate(130)">
            <mask id="d" fill="#fff">
                <use xlink:href="#c"/>
            </mask>
            <path class="upper-logo" fill="#2CBFCF" d="M18.574 12.16c0-.963-.183-1.872-.549-2.727a7.054 7.054 0 0 0-1.49-2.228 7.016 7.016 0 0 0-2.213-1.499 6.74 6.74 0 0 0-2.71-.552c-.967 0-1.874.184-2.718.552a7.157 7.157 0 0 0-2.215 1.499 7 7 0 0 0-1.495 2.228 6.84 6.84 0 0 0-.55 2.726c0 .963.182 1.867.55 2.712a7.144 7.144 0 0 0 1.495 2.22 7.105 7.105 0 0 0 2.215 1.506c.844.369 1.75.554 2.718.554a6.74 6.74 0 0 0 2.71-.554c.85-.369 1.588-.87 2.213-1.505a7.202 7.202 0 0 0 1.49-2.22 6.748 6.748 0 0 0 .549-2.713m4.352 0c0 1.046-.135 2.052-.404 3.02-.27.967-.65 1.874-1.138 2.72a11.257 11.257 0 0 1-1.771 2.312 11.589 11.589 0 0 1-2.29 1.79 11.164 11.164 0 0 1-5.71 1.558c-1.04 0-2.04-.135-3.001-.407a11.323 11.323 0 0 1-5.002-2.941 11.482 11.482 0 0 1-1.78-2.313A11.52 11.52 0 0 1 .688 15.18a11.161 11.161 0 0 1-.406-3.02c0-1.044.135-2.053.406-3.026A11.322 11.322 0 0 1 3.61 4.11a11.213 11.213 0 0 1 2.298-1.782c.84-.492 1.742-.874 2.704-1.145a10.991 10.991 0 0 1 3-.407c1.037 0 2.041.136 3.008.407.967.271 1.867.653 2.703 1.145a11.362 11.362 0 0 1 2.29 1.782 11.355 11.355 0 0 1 3.313 8.05" mask="url(#d)"/>
        </g>
        <path class="upper-logo" fill="#2CBFCF" d="M166.505 6.403v8.807h4.504c.617 0 1.197-.115 1.74-.346a4.571 4.571 0 0 0 1.429-.943c.408-.398.73-.867.964-1.403a4.2 4.2 0 0 0 .355-1.711 4.2 4.2 0 0 0-.355-1.711 4.397 4.397 0 0 0-.964-1.404 4.572 4.572 0 0 0-1.429-.943 4.414 4.414 0 0 0-1.74-.346h-4.504zm0 17.597H162V2h9.01a9.079 9.079 0 0 1 4.526 1.205 9.087 9.087 0 0 1 1.82 1.38 8.898 8.898 0 0 1 1.412 1.788c.392.654.696 1.355.91 2.102a8.34 8.34 0 0 1 .322 2.332 8.364 8.364 0 0 1-.707 3.413 8.852 8.852 0 0 1-1.93 2.8 9.107 9.107 0 0 1-2.864 1.887 8.92 8.92 0 0 1-3.49.69h-4.504V24zM204 24h-15V2h15v4.403h-10.62v4.404h7.187v4.403h-7.187v4.388H204zM217.505 6.403v8.807h4.504c.618 0 1.198-.115 1.74-.346a4.547 4.547 0 0 0 1.429-.943c.409-.398.73-.867.965-1.403a4.216 4.216 0 0 0 .354-1.711c0-.604-.118-1.174-.354-1.711a4.4 4.4 0 0 0-.965-1.404 4.547 4.547 0 0 0-1.429-.943 4.407 4.407 0 0 0-1.74-.346h-4.504zm0 17.597H213V2h9.01a9.079 9.079 0 0 1 4.527 1.205 9.11 9.11 0 0 1 1.819 1.38 8.769 8.769 0 0 1 2.322 3.89c.215.747.322 1.524.322 2.332 0 .757-.096 1.494-.29 2.209a8.967 8.967 0 0 1-.831 2.04 8.673 8.673 0 0 1-1.326 1.78 8.942 8.942 0 0 1-1.758 1.411L229.29 24h-4.786l-1.962-4.434-5.037.032V24zM252.496 15.21v-4.403c0-.604-.118-1.175-.354-1.711a4.434 4.434 0 0 0-2.4-2.348 4.503 4.503 0 0 0-1.75-.345 4.558 4.558 0 0 0-3.186 1.289 4.437 4.437 0 0 0-.965 1.404 4.212 4.212 0 0 0-.354 1.71v4.404h9.009zM257 24h-4.504v-4.402h-9.009V24H239V10.807c0-1.217.236-2.36.706-3.43a8.925 8.925 0 0 1 1.922-2.8 8.967 8.967 0 0 1 2.856-1.886A8.94 8.94 0 0 1 247.99 2c1.245 0 2.414.23 3.508.69a9.101 9.101 0 0 1 2.864 1.888 8.893 8.893 0 0 1 1.93 2.8 8.408 8.408 0 0 1 .707 3.429V24zM276.252 24h-4.489V6.403H265V2h18v4.403h-6.748z"/>
        <mask id="f" fill="#fff">
            <use xlink:href="#e"/>
        </mask>
        <path class="upper-logo" fill="#2CBFCF" d="M291 24h4V2h-4zM322.58 11.992c0-.929-.186-1.806-.558-2.632a6.815 6.815 0 0 0-1.513-2.151 7.148 7.148 0 0 0-2.249-1.447 7.15 7.15 0 0 0-2.752-.533c-.982 0-1.904.177-2.76.533a7.294 7.294 0 0 0-2.25 1.447 6.749 6.749 0 0 0-1.519 2.15 6.325 6.325 0 0 0-.558 2.633c0 .93.185 1.803.558 2.62a6.89 6.89 0 0 0 1.52 2.143 7.24 7.24 0 0 0 2.248 1.454c.857.356 1.78.534 2.76.534a7.15 7.15 0 0 0 2.753-.534 6.959 6.959 0 0 0 3.762-3.598 6.24 6.24 0 0 0 .558-2.619m4.42 0c0 1.01-.137 1.981-.41 2.916a10.94 10.94 0 0 1-2.955 4.859 11.649 11.649 0 0 1-2.326 1.728 11.814 11.814 0 0 1-5.8 1.505 11.835 11.835 0 0 1-5.793-1.505 11.613 11.613 0 0 1-2.336-1.728 11.205 11.205 0 0 1-1.806-2.233 10.795 10.795 0 0 1-1.163-2.626 10.316 10.316 0 0 1-.411-2.916c0-1.008.137-1.982.41-2.921a10.61 10.61 0 0 1 1.164-2.626 11.392 11.392 0 0 1 4.14-3.947c.854-.474 1.77-.843 2.748-1.105A11.706 11.706 0 0 1 315.508 1a11.854 11.854 0 0 1 5.8 1.498 11.425 11.425 0 0 1 2.327 1.721 11.048 11.048 0 0 1 1.799 2.226c.497.81.882 1.685 1.156 2.626.273.939.41 1.913.41 2.921M354 24h-4.817l-8.678-14.482V24H336V2h4.818l8.678 14.498V2H354z" mask="url(#f)"/>
    </g>
</svg>
