<svg xmlns="http://www.w3.org/2000/svg" width="27" height="27" viewBox="0 0 27 27">
    <g fill="#2CBFCF" fill-rule="evenodd" stroke="#2CBFCF" stroke-width=".25">
        <path d="M19.05 12.164a.508.508 0 0 1-.508-.507c0-4.131-3.36-7.492-7.49-7.492a.508.508 0 0 1 0-1.015c4.69 0 8.505 3.816 8.505 8.507 0 .28-.228.507-.508.507zM11.364 2.016c-5.156 0-9.35 4.196-9.35 9.352 0 5.157 4.194 9.351 9.35 9.351 5.155 0 9.348-4.194 9.348-9.35 0-5.157-4.193-9.353-9.348-9.353zm6.585 17.532l5.226 5.226 1.599-1.6-5.199-5.2-1.626 1.574zM23.176 26c-.13 0-.26-.05-.36-.149l-5.796-5.798a10.307 10.307 0 0 1-5.655 1.683C5.649 21.736 1 17.085 1 11.368 1 5.652 5.65 1 11.365 1s10.364 4.652 10.364 10.368c0 2.08-.617 4.021-1.676 5.647l5.798 5.8a.509.509 0 0 1 0 .72l-2.317 2.316a.504.504 0 0 1-.358.149z"/>
        <path d="M17.147 13.147a.5.5 0 1 0 .705.706.5.5 0 0 0-.705-.706"/>
        <path d="M16.65 13.643l.356.358a.008.008 0 0 0 0-.012l-.357-.346zM17 15a1.001 1.001 0 0 1-1-1.005 1 1 0 0 1 .293-.71 1.02 1.02 0 0 1 1.414 0c.189.189.293.441.293.71A1.001 1.001 0 0 1 17 15z"/>
    </g>
</svg>
