<svg xmlns="http://www.w3.org/2000/svg" width="52" height="49" viewBox="0 0 52 49">
    <g fill="#FFF" fill-rule="evenodd" stroke="#FFF" stroke-width=".5">
        <path d="M48.495 13.747l-4.677 12.907h-28.41L12.361 8.622l36.134 5.125zM1.292 2.677h.014l7.415-.08.764 4.518c.001.064 0 .128.01.192l3.29 19.512c-2.137.518-3.739 2.57-3.739 5.02 0 1.7.508 3.081 1.47 3.994.61.578 1.718 1.251 3.458 1.155l28.404-.003c1.166.074 3.061.991 3.625 2.797a1.293 1.293 0 0 0 2.467-.77c-.884-2.833-3.65-4.462-6.009-4.609l-28.554.002c-.718.035-1.26-.113-1.612-.446-.428-.407-.665-1.16-.665-2.12 0-1.414.991-2.565 2.208-2.565h7.122c.101 0 .197-.014.291-.035h23.473c.544 0 1.03-.34 1.215-.852l5.528-15.255a1.29 1.29 0 0 0-1.034-1.72L11.91 5.948l-.823-4.87A1.304 1.304 0 0 0 9.798 0L1.28.092a1.294 1.294 0 0 0 .013 2.585zM19.184 43.384c0 1.544-1.256 2.8-2.8 2.8a2.803 2.803 0 0 1-2.8-2.8c0-1.544 1.256-2.8 2.8-2.8 1.544 0 2.8 1.256 2.8 2.8m-8.184 0a5.39 5.39 0 0 0 5.384 5.384 5.39 5.39 0 0 0 5.384-5.384A5.39 5.39 0 0 0 16.384 38 5.39 5.39 0 0 0 11 43.384"/>
        <path d="M39.384 45.184a2.803 2.803 0 0 1-2.8-2.8c0-1.544 1.256-2.8 2.8-2.8 1.544 0 2.8 1.256 2.8 2.8 0 1.544-1.256 2.8-2.8 2.8m0-8.184A5.39 5.39 0 0 0 34 42.384a5.39 5.39 0 0 0 5.384 5.384 5.39 5.39 0 0 0 5.384-5.384A5.39 5.39 0 0 0 39.384 37"/>
    </g>
</svg>
